<svg xmlns="http://www.w3.org/2000/svg" xmlns:xlink="http://www.w3.org/1999/xlink" version="1.1" x="0px" y="0px" viewBox="0 0 100 100" enable-background="new 0 0 100 100" xml:space="preserve"><g><g><g><path d="M50.084,98.22L8,73.924V25.331L50.084,1.034l42.083,24.296v48.593L50.084,98.22L50.084,98.22z M12.271,71.459     l37.813,21.83l37.813-21.83V27.796L50.084,5.964L12.271,27.796V71.459L12.271,71.459z"></path></g></g><g><g><g><path d="M53.392,45.598c2.616-0.286,4.36-1.411,5.232-3.372c0.488-1.165,0.646-2.177,0.472-3.035h-5.704v-8.954h11.146v8.433      c0,2.432-0.855,4.593-2.564,6.483c-1.71,1.891-4.571,3-8.582,3.327V45.598z M69.053,45.598c2.616-0.286,4.344-1.411,5.181-3.372      c0.488-1.165,0.662-2.177,0.523-3.035h-5.704v-8.954h11.198v8.433c0,2.432-0.855,4.603-2.563,6.514      c-1.71,1.911-4.588,3.009-8.635,3.295V45.598z"></path></g></g><g><polygon points="44.38,35.379 19.989,35.379 19.989,31.108 44.38,31.108 44.38,35.379    "></polygon></g><g><polygon points="44.38,47.677 19.989,47.677 19.989,43.407 44.38,43.407 44.38,47.677    "></polygon></g><g><polygon points="80.251,59.976 19.989,59.976 19.989,55.706 80.251,55.706 80.251,59.976    "></polygon></g><g><polygon points="70.721,72.274 29.521,72.274 29.521,68.004 70.721,68.004 70.721,72.274    "></polygon></g></g></g></svg>